<svg style="display: none;"><symbol viewBox="-587.9 1416.8 1336.2 2848.2" id="shape-facebook"><title>facebook</title> <path d="M684.5,1797.3c0,0-329.6-56.6-406.2,36.6c-113.2,56.6-76.6,422.8-76.6,422.8h409.5v369.6H201.7v1638.1h-486.1V2626.4h-303
	v-369.6H-281c-26.6,0,16.6-362.9,20-396.2c16.6-179.8,149.8-339.6,323-399.5c236.4-79.9,449.5-36.6,685.9,20
	C727.8,1587.6,704.5,1694.1,684.5,1797.3z"/> </symbol><symbol viewBox="-1151 1217 448 448" id="shape-github"><title>github</title> <path d="M-927,1217c-123.7,0-224,102.9-224,229.7c0,101.5,64.2,187.5,153.2,217.9c1.4,0.3,2.6,0.4,3.8,0.4c8.3,0,11.5-6.1,11.5-11.4
	c0-5.5-0.2-19.9-0.3-39.1c-8.4,1.9-15.9,2.7-22.6,2.7c-43.1,0-52.9-33.5-52.9-33.5c-10.2-26.5-24.9-33.6-24.9-33.6
	c-19.5-13.7-0.1-14.1,1.4-14.1c0.1,0,0.1,0,0.1,0c22.5,2,34.3,23.8,34.3,23.8c11.2,19.6,26.2,25.1,39.6,25.1c10.5,0,20-3.4,25.6-6
	c2-14.8,7.8-24.9,14.2-30.7c-49.7-5.8-102-25.5-102-113.5c0-25.1,8.7-45.6,23-61.6c-2.3-5.8-10-29.2,2.2-60.8c0,0,1.6-0.5,5-0.5
	c8.1,0,26.4,3.1,56.6,24.1c17.9-5.1,37-7.6,56.1-7.7c19,0.1,38.2,2.6,56.1,7.7c30.2-21,48.5-24.1,56.6-24.1c3.4,0,5,0.5,5,0.5
	c12.2,31.6,4.5,55,2.2,60.8c14.3,16.1,23,36.6,23,61.6c0,88.2-52.4,107.6-102.3,113.3c8,7.1,15.2,21.1,15.2,42.5
	c0,30.7-0.3,55.5-0.3,63c0,5.4,3.1,11.5,11.4,11.5c1.2,0,2.6-0.1,4-0.4c89.1-30.4,153.2-116.5,153.2-217.9
	C-703,1319.9-803.3,1217-927,1217z"/> </symbol><symbol viewBox="0 0 98.918 100" id="shape-rss"><title>rss</title> <ellipse cx="13.566" cy="86.286" rx="13.566" ry="13.714"/> <path d="M65.569,100H46.35c0-25.879-20.752-46.858-46.35-46.858l0,0V33.715C36.214,33.715,65.569,63.391,65.569,100z"/> <path d="M79.135,100c0-44.183-35.429-80-79.135-80V0c54.631,0,98.918,44.772,98.918,100H79.135z"/> </symbol><symbol viewBox="-1411 1423.2 44.1 36.9" id="shape-twitter"><title>twitter</title> <g id="twitter-twitter"> <path d="M-1368.1,1427.4c0.3-1.1,0-2.3-1-3c-0.5-0.4-1.1-0.6-1.8-0.6c-0.5,0-1,0.1-1.4,0.4c-0.9,0.5-1.8,0.9-2.8,1.2
		c-1.9-1.4-4.2-2.2-6.5-2.2c-5.4,0-9.9,4-10.6,9.3c-4.3-0.9-8.3-3.3-11.1-6.8c-0.5-0.7-1.3-1-2.2-1c-0.1,0-0.1,0-0.2,0
		c-0.9,0.1-1.8,0.6-2.2,1.4c-1,1.6-1.5,3.5-1.5,5.4c0,1.3,0.2,2.5,0.6,3.7c-0.5,0.5-0.7,1.2-0.7,1.9c0,2.8,1.1,5.4,2.8,7.3
		c-0.1,0.5-0.1,1,0.1,1.5c0.6,1.9,1.7,3.6,3.2,4.8c-0.9,0.2-1.9,0.3-2.9,0.3c-0.5,0-1,0-1.5-0.1c-0.1,0-0.2,0-0.3,0
		c-1.2,0-2.3,0.7-2.7,1.9c-0.4,1.2,0,2.6,1.1,3.3c4.1,2.6,8.8,4,13.6,4c15.7,0,25.1-12.6,25.2-24.9c1.3-1.1,2.4-2.3,3.3-3.7
		c0.4-0.5,0.6-1.1,0.6-1.7C-1366.9,1428.8-1367.4,1427.9-1368.1,1427.4z"/> </g> </symbol><symbol viewBox="-1382.1 1410.3 86.3 61.4" id="shape-youtube"><title>youtube</title> <g> <path d="M-1297.4,1420.7c-1.1-4.6-4.8-7.9-9.3-8.4c-10.7-1.2-21.5-1.9-32.3-1.9c-10.8,0-21.6,0.7-32.3,1.9
		c-4.5,0.5-8.3,3.9-9.3,8.4c-1.5,6.5-1.5,13.6-1.5,20.3c0,6.7,0,13.8,1.5,20.3c1.1,4.6,4.8,7.9,9.3,8.4c10.7,1.2,21.5,1.9,32.3,1.9
		c10.8,0,21.6-0.7,32.3-1.9c4.5-0.5,8.3-3.9,9.3-8.4c1.5-6.5,1.5-13.6,1.5-20.3S-1295.8,1427.2-1297.4,1420.7 M-1324.3,1443
		l-20.3,11c-2,1.1-3.7,0.1-3.7-2.2v-21.6c0-2.3,1.7-3.3,3.7-2.2l20.3,11C-1322.3,1440.1-1322.3,1441.9-1324.3,1443"/> </g> </symbol></svg>