<?xml version="1.0" encoding="utf-8"?>
<!-- Generator: Adobe Illustrator 18.1.1, SVG Export Plug-In . SVG Version: 6.00 Build 0)  -->
<svg version="1.1" id="Layer_1" xmlns="http://www.w3.org/2000/svg" xmlns:xlink="http://www.w3.org/1999/xlink" x="0px" y="0px"
	 viewBox="-1411 1423.2 44.1 36.9" enable-background="new -1411 1423.2 44.1 36.9" xml:space="preserve">
<g id="twitter">
	<path d="M-1368.1,1427.4c0.3-1.1,0-2.3-1-3c-0.5-0.4-1.1-0.6-1.8-0.6c-0.5,0-1,0.1-1.4,0.4c-0.9,0.5-1.8,0.9-2.8,1.2
		c-1.9-1.4-4.2-2.2-6.5-2.2c-5.4,0-9.9,4-10.6,9.3c-4.3-0.9-8.3-3.3-11.1-6.8c-0.5-0.7-1.3-1-2.2-1c-0.1,0-0.1,0-0.2,0
		c-0.9,0.1-1.8,0.6-2.2,1.4c-1,1.6-1.5,3.5-1.5,5.4c0,1.3,0.2,2.5,0.6,3.7c-0.5,0.5-0.7,1.2-0.7,1.9c0,2.8,1.1,5.4,2.8,7.3
		c-0.1,0.5-0.1,1,0.1,1.5c0.6,1.9,1.7,3.6,3.2,4.8c-0.9,0.2-1.9,0.3-2.9,0.3c-0.5,0-1,0-1.5-0.1c-0.1,0-0.2,0-0.3,0
		c-1.2,0-2.3,0.7-2.7,1.9c-0.4,1.2,0,2.6,1.1,3.3c4.1,2.6,8.8,4,13.6,4c15.7,0,25.1-12.6,25.2-24.9c1.3-1.1,2.4-2.3,3.3-3.7
		c0.4-0.5,0.6-1.1,0.6-1.7C-1366.9,1428.8-1367.4,1427.9-1368.1,1427.4z"/>
</g>
</svg>
